<svg width="3010" height="723" xmlns="http://www.w3.org/2000/svg" xmlns:xlink="http://www.w3.org/1999/xlink" xml:space="preserve" overflow="hidden"><g transform="translate(-695 -649)"><path fill="#DC8024" d="M2778.24 801.924C2742.49 800.851 2725.04 841.754 2725.9 924.512 2726.24 957.759 2730.17 986.924 2737.68 1012.06 2745.21 1037.26 2759.63 1050.69 2780.99 1052.39 2797.47 1053.7 2809.72 1048.18 2817.75 1035.71 2825.79 1023.22 2830.7 1008.54 2832.54 991.717 2834.38 974.883 2835.5 954.505 2835.92 930.592 2834.83 896.573 2830.63 866.748 2823.27 841.187 2815.92 815.699 2800.91 802.605 2778.24 801.924ZM3025.38 800.235C3025.79 834.287 3026.21 868.339 3026.62 902.391 3047.64 903.797 3068.65 905.286 3089.67 906.796 3093.02 907.037 3096.61 904.493 3100.47 899.164 3104.34 893.826 3106.24 879.763 3106.2 857.004 3105.37 835.248 3102.88 820.797 3098.69 813.682 3094.5 806.581 3091.03 802.97 3088.26 802.851 3067.3 801.955 3046.34 801.069 3025.38 800.235ZM3512.96 824.467C3513.53 932.92 3514.1 1041.37 3514.67 1149.83 3530.36 1152.64 3546.02 1155.53 3561.69 1158.44 3572.29 1160.41 3580.79 1155.98 3587.26 1145.09 3593.76 1134.16 3598.93 1119.51 3603.01 1101.25 3607.1 1082.94 3609.59 1049.09 3610.61 999.739 3610.16 954.513 3607.8 920.927 3603.4 899.05 3599.02 877.238 3593.51 859.98 3586.65 847.366 3579.81 834.797 3570.96 828.156 3560.04 827.456 3544.35 826.449 3528.66 825.441 3512.96 824.467ZM1936.37 771.456C1923.94 837.634 1911.48 903.981 1898.98 970.504 1922.12 969.708 1945.26 968.993 1968.4 968.38 1957.67 902.863 1946.99 837.224 1936.37 771.456ZM3428.66 663.615C3477.84 663.85 3527.01 664.101 3576.19 664.363 3596.16 664.469 3613.81 671.662 3629.04 686.157 3644.34 700.724 3657.16 720.553 3667.66 745.496 3678.23 770.6 3686.84 804.632 3693.81 847.505 3700.81 890.593 3704.17 946.382 3704.14 1014.66 3702.85 1077.61 3699.13 1130.6 3692.82 1173.5 3686.55 1216.19 3678.38 1249.05 3668.03 1271.97 3657.75 1294.73 3645.24 1311.15 3630.35 1321.12 3615.51 1331.05 3596.87 1332.39 3574.42 1325.56 3527.49 1313.84 3480.4 1302.67 3433.19 1292.09 3431.68 1082.6 3430.17 873.108 3428.66 663.615ZM2933.29 661.697C2987.56 661.854 3041.84 662.033 3096.11 662.225 3116.26 666.474 3132.93 678.706 3146.07 698.969 3159.28 719.34 3169 746.773 3175.39 781.149 3180.6 832.702 3181.28 872.323 3177.42 899.836 3173.57 927.282 3166.64 949.885 3156.42 967.515 3146.25 985.07 3131.57 998.166 3112.29 1006.65 3118.76 1025.4 3125.16 1044.23 3131.61 1063.13 3156.51 1066.11 3181.36 1069.24 3206.22 1072.45 3204.72 935.841 3203.23 799.231 3201.73 662.621 3228.86 662.728 3255.99 662.841 3283.13 662.956 3284.52 803.099 3285.91 943.242 3287.3 1083.39 3332.22 1089.65 3377.05 1096.37 3421.83 1103.36 3422.29 1165.53 3422.75 1227.7 3423.21 1289.87 3351.82 1274 3280.13 1259.44 3208.17 1246.25 3208.16 1246.25 3208.14 1246.25 3208.13 1246.24 3175.38 1240.24 3142.57 1234.52 3109.73 1229.09 3082.76 1162.75 3055.63 1097.49 3028.2 1033.35 3028.94 1094.42 3029.68 1155.48 3030.42 1216.54 3000.24 1211.99 2970.05 1207.67 2939.8 1203.61 2937.63 1022.97 2935.46 842.334 2933.29 661.697ZM1295.99 662.254C1367.47 662 1438.96 661.769 1510.44 661.574 1509.78 714.812 1509.12 768.051 1508.45 821.289 1464.06 823.04 1419.68 825.001 1375.31 827.081 1375.04 848.327 1374.77 869.573 1374.5 890.82 1403.16 888.992 1431.82 887.222 1460.5 885.58 1460.1 917.133 1459.7 948.685 1459.3 980.238 1430.6 982.541 1401.94 985.015 1373.28 987.579 1373.01 1008.83 1372.74 1030.07 1372.47 1051.32 1422.68 1045.97 1472.95 1041.04 1523.28 1036.65 1524.82 911.609 1526.37 786.568 1527.92 661.526 1555.06 661.454 1582.2 661.384 1609.34 661.32 1626.67 733.732 1644.1 805.618 1661.67 876.985 1680.62 804.532 1699.55 732.569 1718.48 661.085 1745.62 661.033 1772.77 660.984 1799.91 660.941 1798.5 814.818 1797.08 968.694 1795.67 1122.57 1822.14 967.586 1848.52 813.711 1874.72 660.832 1916.13 660.778 1957.54 660.733 1998.95 660.7 2025.94 826.025 2053.33 990.785 2081.05 1155.13 2049.14 1155.82 2017.24 1156.79 1985.35 1158.03 1980.19 1128.38 1975.05 1098.71 1969.92 1069.02 1944.92 1069.88 1919.91 1070.89 1894.93 1072.04 1889.4 1102.4 1883.87 1132.81 1878.33 1163.25 1850.62 1164.87 1822.93 1166.7 1795.25 1168.74 1792.73 1168.93 1790.21 1169.11 1787.7 1169.3 1762.82 1171.17 1737.95 1173.2 1713.11 1175.4 1713.85 1104.17 1714.6 1032.93 1715.34 961.696 1697 1034.07 1678.69 1106.94 1660.38 1180.32 1658.87 1180.47 1657.35 1180.62 1655.84 1180.77 1639.03 1110.35 1622.35 1039.47 1605.73 968.126 1604.88 1040.83 1604.02 1113.53 1603.17 1186.23 1577.09 1189.06 1551.02 1192.08 1524.99 1195.27 1523.76 1195.42 1522.54 1195.58 1521.31 1195.73 1443.65 1205.31 1366.17 1216.52 1288.99 1229.3 1291.32 1040.29 1293.66 851.27 1295.99 662.254ZM1048.32 663.258C1075.45 663.136 1102.58 663.016 1129.71 662.903 1153.58 736.598 1177.47 809.146 1201.66 880.48 1202.51 807.853 1203.35 735.226 1204.19 662.599 1231.32 662.493 1258.46 662.389 1285.6 662.291 1283.27 851.872 1280.94 1041.45 1278.61 1231.03 1251.51 1235.57 1224.46 1240.3 1197.44 1245.23 1173.39 1176.66 1149.6 1106.97 1125.73 1036.23 1124.94 1110.56 1124.15 1184.9 1123.35 1259.23 1096.41 1264.5 1069.49 1269.97 1042.62 1275.62 1044.52 1071.5 1046.42 867.38 1048.32 663.258ZM950.166 663.719C977.296 663.588 1004.43 663.458 1031.56 663.334 1029.71 868.603 1027.87 1073.87 1026.02 1279.14 999.148 1284.87 972.345 1290.79 945.56 1296.9 947.096 1085.84 948.631 874.779 950.166 663.719ZM2777.17 657.3C2807.08 657.345 2833.06 667.796 2854.97 688.93 2876.99 710.169 2893.9 741.679 2905.82 783.298 2917.81 825.129 2924.09 875.715 2924.79 934.841 2925.5 993.967 2920.43 1043.84 2909.41 1084.25 2898.45 1124.47 2882.23 1153.68 2860.69 1171.82 2839.19 1189.93 2813.29 1197.07 2783.07 1193.81 2752.84 1190.55 2726.81 1177.88 2704.84 1155.78 2682.99 1133.8 2666.24 1102.96 2654.68 1063.05 2646.04 1033.22 2640.49 998.777 2638.04 959.669 2637.91 956.869 2637.77 954.068 2637.64 951.267 2629.37 1024.14 2621.08 1096.83 2612.72 1169.33 2585.33 1167.28 2557.91 1165.42 2530.49 1163.78 2519.32 1092.18 2508.18 1020.77 2497.07 949.545 2488.7 1020 2480.29 1090.34 2471.83 1160.56 2444.39 1159.21 2416.95 1158.06 2389.49 1157.11 2369.64 1040.43 2349.9 924.068 2330.31 807.983 2312.92 807.854 2295.53 807.747 2278.15 807.669 2202.34 807.33 2126.52 807.489 2050.72 808.139 2050.91 758.98 2051.11 709.821 2051.3 660.663 2126.84 660.618 2202.38 660.607 2277.92 660.63 2298.02 660.636 2318.12 660.645 2338.22 660.656 2356.35 660.667 2374.48 660.679 2392.61 660.693 2404.37 732.295 2416.16 804.023 2428.01 875.885 2437.64 804.297 2447.21 732.588 2456.72 660.751 2481.67 660.776 2506.62 660.807 2531.57 660.84 2543.72 733.444 2555.9 806.262 2568.12 879.302 2575.33 806.661 2582.49 733.869 2589.61 660.924 2616.46 660.965 2643.32 661.013 2670.17 661.063 2666.8 691.443 2663.43 721.787 2660.04 752.094 2661.32 748.936 2662.59 745.775 2663.86 742.614 2666.5 736.447 2669.32 730.598 2672.33 725.068 2684.39 702.91 2699.23 686.091 2716.89 674.594 2734.58 663.079 2754.65 657.267 2777.17 657.3ZM835.296 649.688C862.064 653.341 882.422 661.703 896.465 674.71 910.44 687.654 924.405 711.071 938.558 744.767 921.736 791.892 905.242 839.67 888.651 887.958 880.422 870.725 873.218 858.355 866.811 851.027 860.387 843.679 849.872 839.245 835.174 837.825 820.882 843.646 810.275 852.305 803.215 863.593 796.13 874.921 790.138 890.161 785.015 909.207 779.874 928.318 776.876 956.627 775.858 994.062 776.683 1031.26 779.526 1058.81 784.536 1076.64 789.529 1094.4 795.389 1108.13 802.349 1117.69 809.283 1127.23 819.76 1133.22 833.885 1135.56 848.493 1130.55 858.971 1123.56 865.437 1114.66 871.885 1105.8 879.179 1091.68 887.581 1072.48 903.555 1116.93 919.316 1160.92 935.329 1204.32 920.836 1241.26 906.767 1267.96 892.833 1284.19 878.822 1300.5 858.7 1313.68 832.389 1323.86 807.006 1326.52 787.834 1321.29 774.877 1307.91 761.847 1294.46 749.066 1275.25 736.362 1250.35 723.555 1225.24 713.738 1192.03 706.506 1150.9 699.236 1109.55 695.684 1060.56 695.684 1004.13 695.684 948.345 699.24 898.692 706.61 855.395 713.942 812.325 723.954 776.444 737.037 747.943 750.02 719.66 763.137 697.087 776.497 680.254 789.782 663.516 809.411 653.342 835.296 649.688Z" fill-rule="evenodd"/><text fill="currentColor" fill-opacity="0" font-family="Arial,Arial_MSFontService,sans-serif" font-size="680.122" x="695.684" y="1244.79">Cinema+World</text></g></svg>