<svg width="2544" height="704" xmlns="http://www.w3.org/2000/svg" xmlns:xlink="http://www.w3.org/1999/xlink" xml:space="preserve" overflow="hidden"><g transform="translate(-1134 -702)"><path fill="#DC8024" d="M3412.34 854.398C3391.1 935.15 3370.07 1014.77 3348.67 1093.15 3390.59 1098.51 3432.44 1104.31 3474.24 1110.34 3453.74 1023.8 3433.29 938.45 3412.34 854.398ZM2235.57 713.632C2366.71 713.524 2497.84 713.541 2628.98 713.681 2629.23 765.43 2629.48 817.179 2629.72 868.929 2548.1 867.674 2466.45 867.092 2384.81 867.213 2384.79 886.985 2384.78 906.757 2384.76 926.529 2437.57 926.423 2490.37 926.713 2543.17 927.389 2543.26 957.519 2543.34 987.649 2543.43 1017.78 2490.53 1016.83 2437.61 1016.43 2384.69 1016.58 2384.67 1036.35 2384.66 1056.12 2384.64 1075.89 2477.47 1075.58 2570.3 1077.29 2663.03 1080.99 2662.37 958.563 2661.7 836.141 2661.03 713.718 2710.81 713.779 2760.6 713.859 2810.38 713.955 2844.61 788.31 2878.78 863.646 2912.87 940.063 2945.73 865.997 2978.26 790.809 3010.55 714.44 3060.32 714.583 3110.1 714.747 3159.87 714.924 3161.61 889.91 3163.35 1064.89 3165.09 1239.88 3209.59 1069.83 3253.48 895.126 3297.04 715.46 3372.96 715.777 3448.87 716.139 3524.77 716.534 3577.77 937.302 3628.95 1166.93 3677.86 1405.86 3621.44 1390.21 3564.75 1375.52 3507.82 1361.84 3498.18 1320.96 3488.52 1280.36 3478.72 1240.07 3433.81 1231.46 3388.79 1223.28 3343.66 1215.71 3334.39 1250.59 3325.15 1285.27 3315.87 1319.74 3265.93 1309.83 3215.83 1300.7 3165.61 1292.38 3161.04 1291.63 3156.46 1290.88 3151.89 1290.13 3106.72 1282.79 3061.45 1276.09 3016.08 1270.05 3015.31 1193.1 3014.55 1116.14 3013.78 1039.19 2982.61 1113.17 2951.27 1186.17 2919.65 1258.24 2916.88 1257.93 2914.11 1257.62 2911.34 1257.32 2878.66 1179.04 2845.83 1101.94 2812.89 1025.91 2813.48 1099.84 2814.07 1173.76 2814.67 1247.69 2766.73 1243.41 2718.72 1239.89 2670.67 1237.12 2668.41 1236.99 2666.15 1236.86 2663.88 1236.73 2520.57 1228.68 2376.81 1227.34 2233.37 1232.75 2234.11 1059.71 2234.84 886.671 2235.57 713.632ZM1781.18 714.502C1830.96 714.355 1880.73 714.221 1930.51 714.108 1975.18 781.026 2020.27 846.728 2065.65 911.474 2066.15 845.596 2066.65 779.718 2067.14 713.839 2116.93 713.759 2166.71 713.693 2216.49 713.648 2215.69 886.938 2214.88 1060.23 2214.07 1233.52 2163.72 1235.63 2113.4 1238.57 2063.15 1242.33 2017.59 1179.78 1972.26 1116.61 1927.31 1052.55 1926.67 1119.93 1926.03 1187.32 1925.39 1254.71 1875.27 1259.97 1825.23 1266.04 1775.31 1272.91 1777.27 1086.77 1779.22 900.638 1781.18 714.502ZM1601.12 715.116C1650.89 714.927 1700.66 714.751 1750.43 714.596 1748.45 902.149 1746.46 1089.7 1744.48 1277.26 1694.6 1284.46 1644.83 1292.45 1595.2 1301.23 1597.17 1105.86 1599.15 910.489 1601.12 715.116ZM1390.38 702.128C1439.49 705.601 1476.87 713.463 1502.63 725.555 1528.32 737.609 1554.04 759.327 1580.12 790.331 1549.41 834.379 1519.08 879.523 1488.8 925.549 1473.66 909.842 1460.32 898.54 1448.55 891.935 1436.76 885.319 1417.39 881.605 1390.38 880.953 1364.16 887.164 1344.62 896.033 1331.69 907.25 1318.71 918.508 1307.66 933.6 1298.28 952.301 1288.85 971.1 1283.35 998.72 1281.49 1034.98 1283.02 1070.84 1288.26 1097.13 1297.47 1113.7 1306.64 1130.19 1317.51 1142.66 1330.28 1150.92 1343.01 1159.15 1362.37 1163.48 1388.37 1163.95 1415.28 1157.37 1434.63 1149.55 1446.51 1140.47 1458.36 1131.41 1471.85 1117.34 1487.26 1098.58 1516.72 1138.68 1546.16 1178.1 1575.9 1216.64 1549.22 1252.45 1523.21 1279.06 1497.48 1296.18 1471.64 1313.38 1434.4 1328.78 1385.84 1343.05 1338.99 1350.01 1303.68 1348.81 1279.8 1338.37 1255.87 1327.91 1232.26 1311.71 1208.97 1289.77 1185.47 1267.63 1167.4 1236.64 1154.17 1197.29 1140.82 1157.56 1134.32 1109.5 1134.32 1053.56 1134.32 998.243 1140.82 948.675 1154.36 905.35 1167.78 862.417 1186.18 826.535 1210.18 798.254 1233.94 770.246 1258.07 748.048 1282.55 731.673 1306.91 715.378 1342.92 705.602 1390.38 702.128Z" fill-rule="evenodd"/><text fill="#000000" fill-opacity="0" font-family="Arial,Arial_MSFontService,sans-serif" font-size="703.729" x="1134.32" y="1317.89">Cinema</text></g></svg>