<?xml version="1.0" standalone="no"?>
<!DOCTYPE svg PUBLIC "-//W3C//DTD SVG 20010904//EN"
 "http://www.w3.org/TR/2001/REC-SVG-20010904/DTD/svg10.dtd">
<svg version="1.0" xmlns="http://www.w3.org/2000/svg"
 width="246.000000pt" height="245.000000pt" viewBox="0 0 246.000000 245.000000"
 preserveAspectRatio="xMidYMid meet">

<g transform="translate(0.000000,245.000000) scale(0.100000,-0.100000)"
fill="#ffffff" stroke="none">
<path d="M1170 2443 c-293 -50 -509 -115 -732 -220 l-97 -46 -3 -65 -3 -66
-75 -42 -75 -42 -5 -64 -5 -63 -83 -46 c-45 -26 -84 -48 -86 -50 -8 -8 34
-249 59 -351 94 -371 312 -733 592 -983 158 -142 286 -231 485 -339 l88 -48
104 56 c341 183 605 420 798 716 128 196 230 437 277 653 25 113 52 289 46
295 -2 3 -42 25 -87 51 l-83 46 -5 64 -5 63 -75 43 -75 43 -3 64 -3 65 -107
51 c-205 96 -405 158 -651 202 -112 20 -141 22 -191 13z m156 -158 c204 -35
427 -101 587 -173 l67 -31 0 -63 0 -63 80 -43 80 -43 0 -62 0 -62 80 -43 c44
-24 80 -48 80 -54 0 -6 -11 -65 -25 -132 -111 -549 -461 -1011 -982 -1296
l-62 -34 -53 29 c-427 231 -733 568 -903 994 -37 93 -96 312 -109 403 l-7 46
81 43 80 43 0 62 0 63 80 43 80 43 0 63 0 63 77 35 c149 68 396 140 593 173
78 13 78 13 176 -4z"/>
<path d="M1045 2017 l-50 -12 3 -505 c2 -322 -1 -501 -7 -495 -14 15 -77 223
-105 348 -30 134 -63 359 -72 485 -5 57 -11 92 -18 91 -6 0 -40 -17 -76 -38
l-65 -37 2 -82 c3 -162 56 -447 119 -642 l34 -105 -23 -17 c-21 -17 -23 -17
-45 10 -35 42 -129 232 -172 345 -20 56 -50 152 -65 212 -16 61 -32 115 -37
120 -7 6 -29 -11 -64 -50 -52 -57 -55 -62 -49 -100 11 -75 95 -310 154 -430
52 -106 121 -213 201 -313 l25 -32 65 40 c36 22 70 39 75 40 6 0 23 -26 39
-57 60 -124 231 -358 241 -332 3 8 4 363 3 789 l-3 775 -30 2 c-16 1 -52 -4
-80 -10z"/>
<path d="M1310 1241 c0 -435 3 -791 6 -791 18 0 178 117 250 182 316 284 512
628 439 769 -9 16 -33 42 -55 58 l-39 28 25 34 c68 93 55 199 -37 288 -110
106 -336 200 -521 218 l-68 6 0 -792z m247 585 c117 -31 221 -93 242 -145 16
-38 -6 -89 -58 -130 -34 -26 -253 -151 -265 -151 -3 0 -6 99 -6 220 0 249 -8
231 87 206z m258 -452 c73 -48 45 -158 -85 -333 -64 -86 -211 -245 -242 -262
-17 -9 -18 2 -18 215 l0 224 148 86 c81 47 153 86 160 86 7 0 23 -7 37 -16z"/>
</g>
</svg>
