<svg viewBox="0 0 200 200" xmlns="http://www.w3.org/2000/svg">
    <linearGradient id="grad1" x1="0%" x2="100%" y1="0%" y2="50%">
        <stop offset="0%" stop-color="#DC8024"/>
        <stop offset="100%" stop-color="#de9449"/>
    </linearGradient>
    <path fill="url(#grad1)" d="M41.3,-59.4C52.3,-49,58.9,-35.1,62.5,-21C66.1,-6.9,66.6,7.4,62.2,19.9C57.7,32.4,48.3,43,37.1,53C25.9,63,13,72.4,-0.1,72.5C-13.1,72.6,-26.2,63.3,-40.7,54.4C-55.2,45.4,-71.2,36.9,-76,24.2C-80.7,11.6,-74.2,-5.2,-67.5,-20.7C-60.8,-36.2,-53.8,-50.3,-42.5,-60.6C-31.2,-70.9,-15.6,-77.3,-0.2,-77C15.2,-76.8,30.4,-69.8,41.3,-59.4Z" transform="translate(100 100)" />
</svg>