<svg viewBox="0 0 200 200" xmlns="http://www.w3.org/2000/svg">
    <linearGradient id="grad1" x1="0%" x2="100%" y1="0%" y2="100%">
        <stop offset="0%" stop-color="#DC8024"/>
        <stop offset="100%" stop-color="#de9449"/>
    </linearGradient>
    <path fill="url(#grad1)" d="M49.5,-66.2C63,-58.2,72.2,-42.3,75.6,-26C78.9,-9.6,76.5,7.2,69.3,20.4C62.1,33.5,50.1,43,37.8,50.1C25.4,57.2,12.7,61.9,-0.7,62.8C-14.1,63.8,-28.1,60.9,-42.5,54.5C-56.8,48,-71.5,38,-74.4,25.1C-77.3,12.2,-68.4,-3.5,-60.2,-16.7C-52,-29.9,-44.6,-40.6,-34.7,-49.7C-24.8,-58.9,-12.4,-66.7,2.8,-70.5C18,-74.3,35.9,-74.2,49.5,-66.2Z" transform="translate(100 100)" />
</svg>