<svg viewBox="0 0 200 200" xmlns="http://www.w3.org/2000/svg">
    <linearGradient id="grad1" x1="0%" x2="100%" y1="0%" y2="0%">
        <stop offset="0%" stop-color="#e37712"/>
        <stop offset="100%" stop-color="#de9449"/>
    </linearGradient>
    <path fill="url(#grad1)" d="M42,-60C52.6,-50.1,58.2,-35.4,63.9,-20.2C69.6,-5,75.5,10.7,71.8,23.6C68,36.6,54.6,46.7,41.1,53.1C27.5,59.6,13.7,62.4,-2.4,65.8C-18.6,69.1,-37.3,73,-51.2,66.7C-65.2,60.4,-74.5,43.8,-77.5,26.9C-80.6,10.1,-77.4,-7,-70.6,-21.3C-63.7,-35.7,-53.2,-47.2,-40.8,-56.6C-28.5,-65.9,-14.2,-73,0.7,-74C15.7,-75,31.4,-69.9,42,-60Z" transform="translate(100 100)" />
</svg>